<?xml version="1.0" standalone="no"?><!DOCTYPE svg PUBLIC "-//W3C//DTD SVG 1.1//EN" "http://www.w3.org/Graphics/SVG/1.1/DTD/svg11.dtd"><svg t="1734338194291" class="icon" viewBox="0 0 1024 1024" version="1.1" xmlns="http://www.w3.org/2000/svg" p-id="28674" xmlns:xlink="http://www.w3.org/1999/xlink" width="32" height="32"><path d="M604.330667 138.666667c67.456 0 123.008 52.053333 123.008 117.333333v3.925333h13.653333c64.981333 0 118.869333 48.341333 122.794667 110.165334l0.213333 7.210666v401.365334c0 62.848-51.498667 113.493333-115.584 117.12l-7.424 0.213333h-287.317333c-64.981333 0-118.869333-48.298667-122.794667-110.122667l-0.213333-7.253333v-4.010667l-13.653334 0.042667c-64.981333 0-118.869333-48.213333-122.794666-110.122667l-0.213334-7.210666V338.048c0-31.573333 13.312-61.696 36.736-83.669333L318.293333 172.330667A126.208 126.208 0 0 1 404.48 138.666667l-4.906667 0.085333a32.426667 32.426667 0 0 1 2.432-0.085333l0.853334 0.042666 1.621333-0.042666z m123.008 518.656c0 65.28-55.509333 117.333333-123.008 117.333333l-209.706667-0.042667 0.042667 4.053334c0 27.136 22.826667 50.261333 52.906666 53.034666l6.101334 0.298667h287.317333c30.933333 0 55.722667-21.418667 58.709333-47.957333l0.298667-5.376V377.301333c0-27.136-22.869333-50.261333-52.906667-53.077333l-6.101333-0.256-13.653333-0.042667zM604.330667 202.666667l-170.325334-0.042667v58.709333A117.333333 117.333333 0 0 1 323.84 378.453333l-7.168 0.213334H258.005333v278.656c0 27.178667 22.826667 50.261333 52.906667 53.034666l6.101333 0.298667h287.317334c33.024 0 59.008-24.32 59.008-53.333333V256c0-28.970667-26.026667-53.333333-59.008-53.333333z m-234.368 10.112a57.941333 57.941333 0 0 0-7.936 6.229333L274.517333 301.056a53.546667 53.546667 0 0 0-10.538666 13.610667h52.693333c27.605333 0 50.346667-20.992 53.077333-47.872l0.256-5.461334z" fill="#1A1A1A" p-id="28675"></path></svg>
